<svg width="328" height="686" viewBox="0 0 488 956" fill="none" xmlns="http://www.w3.org/2000/svg">
<path d="M244 670V954" stroke="url(#paint0_linear)" stroke-width="3" stroke-linecap="round" stroke-dasharray="1 10"/>
<g filter="url(#filter0_d)">
<path d="M406 168.821C406 168.368 406.368 168 406.821 168C408.181 168 409.284 169.103 409.284 170.463V238.608C409.284 239.968 408.181 241.071 406.821 241.071C406.368 241.071 406 240.703 406 240.25V168.821Z" fill="white"/>
</g>
<path d="M78 118C78 116.343 79.3431 115 81 115H81.1051C81.6574 115 82.1051 115.448 82.1051 116V139.452C82.1051 140.004 81.6574 140.452 81.1051 140.452H81C79.3431 140.452 78 139.108 78 137.452V118Z" fill="white"/>
<path d="M78 161.463C78 160.103 79.1027 159 80.4631 159H81.2841C81.7375 159 82.1051 159.368 82.1051 159.821V202.514C82.1051 202.967 81.7375 203.335 81.2841 203.335H80.4631C79.1027 203.335 78 202.232 78 200.872V161.463Z" fill="white"/>
<path d="M78 221.463C78 220.103 79.1027 219 80.4631 219H81.2841C81.7375 219 82.1051 219.368 82.1051 219.821V262.514C82.1051 262.967 81.7375 263.335 81.2841 263.335H80.4631C79.1027 263.335 78 262.232 78 260.872V221.463Z" fill="white"/>
<g filter="url(#filter1_dddd)">
<rect x="80" y="29" width="328" height="686" rx="48" fill="white"/>
</g>
<rect x="225" y="47" width="36" height="4" rx="2" fill="#C4C4C4"/>
<circle cx="278" cy="49" r="4" fill="#C4C4C4"/>
<path fill-rule="evenodd" clip-rule="evenodd" d="M158 47C158 46.6643 158.01 46.3309 158.029 46H158C158 42.134 154.866 39 151 39H128C107.013 39 90 56.0132 90 77V668C90 688.987 107.013 706 128 706H360C380.987 706 398 688.987 398 668V77C398 56.0132 380.987 39 360 39H338C334.134 39 331 42.134 331 46H330.971C330.99 46.3309 331 46.6643 331 47C331 56.3888 323.389 64 314 64H175C165.611 64 158 56.3888 158 47Z" fill="url(#paint1_linear)"/>
<path fill-rule="evenodd" clip-rule="evenodd" d="M218.676 350.141C218.676 350.151 218.676 350.156 218.677 350.156C218.678 350.156 218.679 350.15 218.683 350.139C218.696 350.091 218.74 349.941 218.878 349.702C219.058 349.39 219.352 349.013 219.786 348.658C220.63 347.965 222.058 347.312 224.329 347.478C233.601 348.159 238.669 354.519 238.669 359.121V388.322C238.669 388.623 238.615 388.735 238.6 388.761C238.57 388.779 238.454 388.832 238.152 388.832H232.516C232.214 388.832 232.098 388.779 232.068 388.761C232.053 388.735 231.999 388.623 231.999 388.322V361.367C231.999 359.45 231.063 357.574 229.719 356.199C228.371 354.819 226.482 353.81 224.419 353.81H218.676V350.141ZM238.604 388.759C238.607 388.755 238.609 388.754 238.609 388.754C238.609 388.755 238.607 388.756 238.604 388.759ZM232.059 388.754C232.059 388.754 232.061 388.755 232.064 388.759C232.061 388.756 232.059 388.755 232.059 388.754ZM224.419 356.263H218.676V388.322C218.676 389.091 218.538 389.955 217.885 390.576C217.246 391.183 216.397 391.284 215.708 391.284H209.968C209.327 391.284 208.538 391.162 207.907 390.612C207.243 390.032 207 389.2 207 388.322V361.061C207 359.541 207.851 357.758 209.047 356.397C210.258 355.018 212.053 353.81 214.17 353.81H216.224V350.136C216.224 349.596 216.455 348.995 216.755 348.475C217.079 347.914 217.564 347.309 218.231 346.762C219.586 345.65 221.643 344.822 224.509 345.033C234.71 345.782 241.121 352.91 241.121 359.121V388.322C241.121 389.046 240.958 389.847 240.369 390.46C239.771 391.083 238.955 391.284 238.152 391.284H232.516C231.713 391.284 230.897 391.083 230.299 390.46C229.71 389.847 229.547 389.045 229.547 388.322V361.367C229.547 360.229 228.968 358.939 227.965 357.913C226.967 356.892 225.678 356.263 224.419 356.263ZM214.17 356.263H216.224V388.322C216.224 388.569 216.2 388.713 216.18 388.789C216.099 388.81 215.953 388.832 215.708 388.832H209.968C209.657 388.832 209.544 388.777 209.521 388.764C209.5 388.729 209.452 388.611 209.452 388.322V361.061C209.452 360.334 209.933 359.105 210.889 358.015C211.83 356.944 213.007 356.263 214.17 356.263ZM209.531 388.777C209.531 388.778 209.528 388.775 209.523 388.767C209.529 388.773 209.531 388.777 209.531 388.777ZM268.373 394.857C268.373 394.847 268.373 394.842 268.372 394.842C268.371 394.842 268.37 394.848 268.366 394.859C268.352 394.907 268.309 395.057 268.171 395.296C267.991 395.608 267.697 395.985 267.263 396.34C266.419 397.033 264.991 397.686 262.72 397.519C253.448 396.839 248.38 390.479 248.38 385.877V356.676C248.38 356.374 248.433 356.263 248.449 356.237C248.479 356.219 248.595 356.166 248.896 356.166H254.533C254.835 356.166 254.951 356.219 254.981 356.237C254.996 356.263 255.049 356.374 255.049 356.676V383.631C255.049 385.548 255.986 387.423 257.33 388.799C258.678 390.179 260.567 391.187 262.63 391.187H268.373V394.857ZM248.445 356.239C248.442 356.242 248.44 356.244 248.44 356.243C248.44 356.243 248.442 356.242 248.445 356.239ZM254.99 356.243C254.99 356.244 254.988 356.242 254.984 356.239C254.988 356.242 254.99 356.243 254.99 356.243ZM262.63 388.735H268.373V356.676C268.373 355.907 268.511 355.043 269.164 354.422C269.803 353.814 270.652 353.714 271.341 353.714H277.081C277.722 353.714 278.511 353.836 279.142 354.386C279.806 354.966 280.049 355.798 280.049 356.676V383.937C280.049 385.457 279.197 387.24 278.002 388.601C276.791 389.98 274.996 391.187 272.879 391.187H270.825V394.862C270.825 395.401 270.594 396.003 270.294 396.523C269.97 397.083 269.485 397.689 268.818 398.236C267.463 399.348 265.406 400.175 262.54 399.965C252.339 399.216 245.928 392.088 245.928 385.877V356.676C245.928 355.952 246.091 355.151 246.68 354.538C247.278 353.915 248.094 353.714 248.896 353.714H254.533C255.336 353.714 256.152 353.915 256.75 354.538C257.339 355.151 257.502 355.952 257.502 356.676V383.631C257.502 384.769 258.081 386.059 259.084 387.085C260.082 388.106 261.371 388.735 262.63 388.735ZM272.879 388.735H270.825V356.676C270.825 356.429 270.849 356.285 270.869 356.209C270.95 356.188 271.096 356.166 271.341 356.166H277.081C277.392 356.166 277.505 356.221 277.528 356.233C277.549 356.269 277.597 356.387 277.597 356.676V383.937C277.597 384.663 277.116 385.893 276.16 386.983C275.219 388.054 274.042 388.735 272.879 388.735ZM277.518 356.221C277.518 356.22 277.521 356.223 277.526 356.23C277.52 356.225 277.518 356.221 277.518 356.221Z" fill="#EDEAEF"/>
<defs>
<filter id="filter0_d" x="399" y="163" width="13.2841" height="83.0707" filterUnits="userSpaceOnUse" color-interpolation-filters="sRGB">
<feFlood flood-opacity="0" result="BackgroundImageFix"/>
<feColorMatrix in="SourceAlpha" type="matrix" values="0 0 0 0 0 0 0 0 0 0 0 0 0 0 0 0 0 0 127 0"/>
<feOffset dx="-2"/>
<feGaussianBlur stdDeviation="2.5"/>
<feColorMatrix type="matrix" values="0 0 0 0 0 0 0 0 0 0 0 0 0 0 0 0 0 0 0.12 0"/>
<feBlend mode="normal" in2="BackgroundImageFix" result="effect1_dropShadow"/>
<feBlend mode="normal" in="SourceGraphic" in2="effect1_dropShadow" result="shape"/>
</filter>
<filter id="filter1_dddd" x="0" y="0" width="488" height="846" filterUnits="userSpaceOnUse" color-interpolation-filters="sRGB">
<feFlood flood-opacity="0" result="BackgroundImageFix"/>
<feColorMatrix in="SourceAlpha" type="matrix" values="0 0 0 0 0 0 0 0 0 0 0 0 0 0 0 0 0 0 127 0"/>
<feOffset dy="2.30969"/>
<feGaussianBlur stdDeviation="1.81152"/>
<feColorMatrix type="matrix" values="0 0 0 0 0.662745 0 0 0 0 0.313726 0 0 0 0 0.768627 0 0 0 0.0278729 0"/>
<feBlend mode="normal" in2="BackgroundImageFix" result="effect1_dropShadow"/>
<feColorMatrix in="SourceAlpha" type="matrix" values="0 0 0 0 0 0 0 0 0 0 0 0 0 0 0 0 0 0 127 0"/>
<feOffset dy="6.38599"/>
<feGaussianBlur stdDeviation="5.00862"/>
<feColorMatrix type="matrix" values="0 0 0 0 0.662745 0 0 0 0 0.313726 0 0 0 0 0.768627 0 0 0 0.04 0"/>
<feBlend mode="normal" in2="effect1_dropShadow" result="effect2_dropShadow"/>
<feColorMatrix in="SourceAlpha" type="matrix" values="0 0 0 0 0 0 0 0 0 0 0 0 0 0 0 0 0 0 127 0"/>
<feOffset dy="15.375"/>
<feGaussianBlur stdDeviation="12.0588"/>
<feColorMatrix type="matrix" values="0 0 0 0 0.662745 0 0 0 0 0.313726 0 0 0 0 0.768627 0 0 0 0.0521271 0"/>
<feBlend mode="normal" in2="effect2_dropShadow" result="effect3_dropShadow"/>
<feColorMatrix in="SourceAlpha" type="matrix" values="0 0 0 0 0 0 0 0 0 0 0 0 0 0 0 0 0 0 127 0"/>
<feOffset dy="51"/>
<feGaussianBlur stdDeviation="40"/>
<feColorMatrix type="matrix" values="0 0 0 0 0.662745 0 0 0 0 0.313726 0 0 0 0 0.768627 0 0 0 0.08 0"/>
<feBlend mode="normal" in2="effect3_dropShadow" result="effect4_dropShadow"/>
<feBlend mode="normal" in="SourceGraphic" in2="effect4_dropShadow" result="shape"/>
</filter>
<linearGradient id="paint0_linear" x1="244.5" y1="670" x2="244.5" y2="954" gradientUnits="userSpaceOnUse">
<stop stop-color="#82269E"/>
<stop offset="1" stop-color="#82269E" stop-opacity="0"/>
</linearGradient>
<linearGradient id="paint1_linear" x1="350.26" y1="129.045" x2="-15.8109" y2="323.893" gradientUnits="userSpaceOnUse">
<stop stop-color="#A950C4"/>
<stop offset="1" stop-color="#82269E"/>
</linearGradient>
</defs>
</svg>
