<svg width="378" height="378" viewBox="0 0 378 378" fill="none" xmlns="http://www.w3.org/2000/svg">
<rect width="377.62" height="377.62" rx="80.9186" fill="url(#paint0_linear)"/>
<g filter="url(#filter0_di)">
<path fill-rule="evenodd" clip-rule="evenodd" d="M104.541 115.021C104.541 114.664 104.765 113.714 105.514 112.418C106.233 111.173 107.364 109.739 108.982 108.411C112.193 105.778 117.388 103.513 125.251 104.091C155.865 106.338 173.424 127.467 173.424 143.797V237.319C173.424 238.919 173.056 239.859 172.529 240.408C172.013 240.946 171.084 241.378 169.344 241.378H151.291C149.551 241.378 148.622 240.946 148.106 240.408C147.579 239.859 147.211 238.919 147.211 237.319V150.991C147.211 145.623 144.565 140.196 140.599 136.137C136.627 132.072 131.172 129.217 125.361 129.217H104.541V115.021ZM125.361 132.217H104.541V237.319C104.541 239.573 104.118 241.489 102.762 242.78C101.422 244.053 99.521 244.378 97.461 244.378H79.0799C77.2813 244.378 75.4539 244.027 74.0734 242.823C72.6517 241.584 72 239.706 72 237.319V150.01C72 145.928 74.3599 140.766 77.9518 136.676C81.5636 132.563 86.6997 129.217 92.5355 129.217H101.541V115.021C101.541 113.907 102.05 112.417 102.916 110.918C103.811 109.368 105.175 107.653 107.08 106.091C110.916 102.945 116.881 100.468 125.471 101.099C157.221 103.429 176.424 125.498 176.424 143.797V237.319C176.424 239.316 175.971 241.155 174.693 242.486C173.404 243.829 171.543 244.378 169.344 244.378H151.291C149.093 244.378 147.232 243.829 145.942 242.486C144.664 241.155 144.211 239.316 144.211 237.319V150.991C144.211 146.575 142.002 141.866 138.453 138.233C134.91 134.607 130.189 132.217 125.361 132.217ZM92.5355 132.217H101.541V237.319C101.541 239.316 101.143 240.179 100.694 240.606C100.228 241.049 99.3397 241.378 97.461 241.378H79.0799C77.5961 241.378 76.6336 241.075 76.0447 240.562C75.4971 240.084 75 239.182 75 237.319V150.01C75 146.899 76.9061 142.414 80.206 138.656C83.4862 134.92 87.8678 132.217 92.5355 132.217ZM268.557 258.266C268.557 258.623 268.332 259.573 267.584 260.869C266.865 262.113 265.734 263.548 264.115 264.876C260.904 267.509 255.709 269.773 247.846 269.196C217.233 266.949 199.673 245.82 199.673 229.49V135.968C199.673 134.368 200.041 133.427 200.568 132.878C201.084 132.341 202.013 131.909 203.753 131.909H221.806C223.546 131.909 224.475 132.341 224.991 132.878C225.518 133.427 225.886 134.368 225.886 135.968V222.296C225.886 227.664 228.533 233.091 232.499 237.15C236.471 241.215 241.925 244.07 247.737 244.07H268.557V258.266ZM247.737 241.07H268.557V135.968C268.557 133.714 268.979 131.798 270.336 130.507C271.675 129.234 273.577 128.909 275.637 128.909H294.018C295.816 128.909 297.644 129.26 299.024 130.464C300.446 131.703 301.098 133.58 301.098 135.968V223.276C301.098 227.359 298.738 232.52 295.146 236.611C291.534 240.724 286.398 244.07 280.562 244.07H271.557V258.266C271.557 259.38 271.048 260.87 270.182 262.369C269.286 263.919 267.922 265.633 266.018 267.195C262.182 270.341 256.217 272.819 247.627 272.188C215.876 269.857 196.673 247.789 196.673 229.49V135.968C196.673 133.971 197.126 132.132 198.404 130.801C199.694 129.458 201.555 128.909 203.753 128.909H221.806C224.005 128.909 225.866 129.458 227.155 130.801C228.433 132.132 228.886 133.971 228.886 135.968V222.296C228.886 226.711 231.095 231.421 234.644 235.053C238.188 238.68 242.909 241.07 247.737 241.07ZM280.562 241.07H271.557V135.968C271.557 133.971 271.955 133.108 272.403 132.681C272.869 132.238 273.758 131.909 275.637 131.909H294.018C295.501 131.909 296.464 132.212 297.053 132.725C297.6 133.202 298.098 134.104 298.098 135.968V223.276C298.098 226.388 296.191 230.873 292.891 234.631C289.611 238.366 285.23 241.07 280.562 241.07Z" fill="white"/>
</g>
<defs>
<filter id="filter0_di" x="58.9109" y="94.4554" width="255.276" height="197.465" filterUnits="userSpaceOnUse" color-interpolation-filters="sRGB">
<feFlood flood-opacity="0" result="BackgroundImageFix"/>
<feColorMatrix in="SourceAlpha" type="matrix" values="0 0 0 0 0 0 0 0 0 0 0 0 0 0 0 0 0 0 127 0"/>
<feOffset dy="6.54455"/>
<feGaussianBlur stdDeviation="6.54455"/>
<feColorMatrix type="matrix" values="0 0 0 0 0.247059 0 0 0 0 0.00784314 0 0 0 0 0.321569 0 0 0 0.8 0"/>
<feBlend mode="normal" in2="BackgroundImageFix" result="effect1_dropShadow"/>
<feBlend mode="normal" in="SourceGraphic" in2="effect1_dropShadow" result="shape"/>
<feColorMatrix in="SourceAlpha" type="matrix" values="0 0 0 0 0 0 0 0 0 0 0 0 0 0 0 0 0 0 127 0" result="hardAlpha"/>
<feOffset dx="1.96337" dy="-1.96337"/>
<feGaussianBlur stdDeviation="3.27228"/>
<feComposite in2="hardAlpha" operator="arithmetic" k2="-1" k3="1"/>
<feColorMatrix type="matrix" values="0 0 0 0 0.869975 0 0 0 0 0.596354 0 0 0 0 0.954167 0 0 0 0.5 0"/>
<feBlend mode="normal" in2="shape" result="effect2_innerShadow"/>
</filter>
<linearGradient id="paint0_linear" x1="319.089" y1="50.9787" x2="71.7478" y2="336.082" gradientUnits="userSpaceOnUse">
<stop stop-color="#A950C4"/>
<stop offset="1" stop-color="#82269E"/>
</linearGradient>
</defs>
</svg>
