<svg width="114" height="88" viewBox="0 0 114 88" fill="none" xmlns="http://www.w3.org/2000/svg">
<g filter="url(#filter0_di)">
<path fill-rule="evenodd" clip-rule="evenodd" d="M20.9996 9.50986C20.9996 9.50937 20.9997 9.50199 21.0014 9.48703C21.0031 9.47129 21.0062 9.44953 21.0117 9.42158C21.0228 9.36507 21.0419 9.291 21.0724 9.20051C21.1336 9.01889 21.2337 8.79134 21.3821 8.53453C21.6785 8.02134 22.1497 7.42165 22.8297 6.864C24.1718 5.76331 26.3708 4.79102 29.7484 5.03896C43.0911 6.01841 50.632 15.2098 50.632 22.1728V63.3275C50.632 63.9868 50.4798 64.2987 50.3329 64.4517C50.1935 64.5969 49.8904 64.7738 49.1766 64.7738H41.2323C40.5185 64.7738 40.2154 64.5969 40.076 64.4517C39.9291 64.2987 39.7769 63.9868 39.7769 63.3275V25.3386C39.7769 22.8685 38.5628 20.399 36.7702 18.5644C34.9738 16.726 32.4904 15.4169 29.8216 15.4169H20.9996V9.50986ZM29.8216 17.4169H20.9996V63.3275C20.9996 64.3485 20.8109 65.3112 20.1109 65.9768C19.4226 66.6314 18.4712 66.7738 17.5441 66.7738H9.45545C8.62831 66.7738 7.72613 66.6137 7.02897 66.006C6.30431 65.3743 6 64.4375 6 63.3275V24.9071C5.99999 23.0005 7.08992 20.6527 8.70363 18.815C10.3306 16.9623 12.6762 15.4169 15.3767 15.4169H18.9996V9.50986C18.9996 8.93377 19.2558 8.21697 19.6502 7.53416C20.0642 6.8176 20.6909 6.03152 21.5614 5.31757C23.3203 3.87505 26.0322 2.76078 29.8948 3.04432C43.9957 4.07943 52.632 13.8971 52.632 22.1728V63.3275C52.632 64.2511 52.4231 65.1624 51.7756 65.8368C51.1206 66.519 50.196 66.7738 49.1766 66.7738H41.2323C40.2129 66.7738 39.2883 66.519 38.6333 65.8368C37.9857 65.1624 37.7769 64.2511 37.7769 63.3275V25.3386C37.7769 23.5035 36.8543 21.5122 35.3397 19.9622C33.829 18.4161 31.8347 17.4169 29.8216 17.4169ZM15.3767 17.4169H18.9996V63.3275C18.9996 64.1772 18.8272 64.4377 18.7327 64.5275C18.6266 64.6284 18.3503 64.7738 17.5441 64.7738H9.45545C8.83819 64.7738 8.51264 64.6461 8.34318 64.4984C8.20122 64.3746 8 64.0882 8 63.3275V24.9071C8 23.6479 8.78734 21.7507 10.2064 20.1347C11.6123 18.5338 13.455 17.4169 15.3767 17.4169ZM92.4949 72.5548C92.4946 72.5583 92.4943 72.5627 92.4937 72.5682C92.492 72.5839 92.4888 72.6057 92.4833 72.6336C92.4723 72.6901 92.4531 72.7642 92.4227 72.8547C92.3615 73.0363 92.2613 73.2638 92.113 73.5207C91.8165 74.0339 91.3453 74.6335 90.6653 75.1912C89.3233 76.2919 87.1242 77.2642 83.7467 77.0162C70.404 76.0368 62.863 66.8454 62.863 59.8823V18.7277C62.863 18.0684 63.0152 17.7565 63.1621 17.6035C63.3015 17.4583 63.6047 17.2814 64.3185 17.2814H72.2627C72.9765 17.2814 73.2797 17.4583 73.4191 17.6035C73.566 17.7565 73.7182 18.0684 73.7182 18.7277V56.7166C73.7182 59.1867 74.9323 61.6562 76.7249 63.4908C78.5213 65.3292 81.0047 66.6382 83.6735 66.6382H92.4954V72.5453C92.4954 72.5456 92.4954 72.5487 92.4949 72.5548ZM83.6735 64.6382H92.4954V18.7277C92.4954 17.7067 92.6841 16.744 93.3841 16.0784C94.0724 15.4238 95.0239 15.2814 95.9509 15.2814H104.04C104.867 15.2814 105.769 15.4415 106.466 16.0492C107.191 16.6809 107.495 17.6177 107.495 18.7277V57.1481C107.495 59.0547 106.405 61.4025 104.791 63.2402C103.164 65.0929 100.819 66.6382 98.1184 66.6382H94.4954V72.5453C94.4954 73.1214 94.2392 73.8382 93.8448 74.521C93.4309 75.2376 92.8042 76.0237 91.9336 76.7376C90.1748 78.1801 87.4628 79.2944 83.6003 79.0109C69.4994 77.9758 60.863 68.1581 60.863 59.8823V18.7277C60.863 17.804 61.0719 16.8928 61.7194 16.2184C62.3744 15.5362 63.299 15.2814 64.3185 15.2814H72.2627C73.2822 15.2814 74.2068 15.5362 74.8618 16.2184C75.5093 16.8928 75.7182 17.8041 75.7182 18.7277V56.7166C75.7182 58.5517 76.6408 60.543 78.1553 62.093C79.6661 63.6391 81.6603 64.6382 83.6735 64.6382ZM98.1184 64.6382H94.4954V18.7277C94.4954 17.878 94.6678 17.6175 94.7623 17.5277C94.8684 17.4268 95.1447 17.2814 95.9509 17.2814H104.04C104.657 17.2814 104.982 17.4091 105.152 17.5568C105.294 17.6806 105.495 17.967 105.495 18.7277V57.1481C105.495 58.4072 104.708 60.3045 103.289 61.9205C101.883 63.5214 100.04 64.6382 98.1184 64.6382Z" fill="white"/>
</g>
<defs>
<filter id="filter0_di" x="0.240093" y="0.120046" width="113.015" height="87.575" filterUnits="userSpaceOnUse" color-interpolation-filters="sRGB">
<feFlood flood-opacity="0" result="BackgroundImageFix"/>
<feColorMatrix in="SourceAlpha" type="matrix" values="0 0 0 0 0 0 0 0 0 0 0 0 0 0 0 0 0 0 127 0"/>
<feOffset dy="2.87995"/>
<feGaussianBlur stdDeviation="2.87995"/>
<feColorMatrix type="matrix" values="0 0 0 0 0.247059 0 0 0 0 0.00784314 0 0 0 0 0.321569 0 0 0 0.8 0"/>
<feBlend mode="normal" in2="BackgroundImageFix" result="effect1_dropShadow"/>
<feBlend mode="normal" in="SourceGraphic" in2="effect1_dropShadow" result="shape"/>
<feColorMatrix in="SourceAlpha" type="matrix" values="0 0 0 0 0 0 0 0 0 0 0 0 0 0 0 0 0 0 127 0" result="hardAlpha"/>
<feOffset dx="0.863986" dy="-0.863986"/>
<feGaussianBlur stdDeviation="1.43998"/>
<feComposite in2="hardAlpha" operator="arithmetic" k2="-1" k3="1"/>
<feColorMatrix type="matrix" values="0 0 0 0 0.869975 0 0 0 0 0.596354 0 0 0 0 0.954167 0 0 0 0.5 0"/>
<feBlend mode="normal" in2="shape" result="effect2_innerShadow"/>
</filter>
</defs>
</svg>
