<svg width="722" height="458" viewBox="0 0 722 458" fill="none" xmlns="http://www.w3.org/2000/svg">
<g filter="url(#filter0_i)">
<rect width="722" height="458" rx="25" fill="url(#paint0_linear)"/>
</g>
<path d="M221.432 363L227.408 345.48H232.976L239.12 363H235.616L234.008 358.344H226.376L224.84 363H221.432ZM227.336 355.464H233.024L230.6 348.336H229.712L227.336 355.464ZM244.122 363V345.48H249.714L257.083 360.168H257.394V345.48H260.61V363H254.995L247.627 348.312H247.291V363H244.122ZM267.335 363.096V345.36H273.671C275.255 345.36 276.631 345.6 277.799 346.08C278.983 346.544 279.967 347.184 280.751 348C281.551 348.8 282.143 349.712 282.527 350.736C282.927 351.76 283.127 352.824 283.127 353.928V354.456C283.127 355.512 282.927 356.552 282.527 357.576C282.143 358.6 281.551 359.528 280.751 360.36C279.967 361.192 278.983 361.856 277.799 362.352C276.631 362.848 275.255 363.096 273.671 363.096H267.335ZM273.887 348.528H270.743V359.928H273.887C275.087 359.928 276.119 359.688 276.983 359.208C277.847 358.712 278.511 358.032 278.975 357.168C279.439 356.304 279.671 355.312 279.671 354.192C279.671 352.448 279.159 351.072 278.135 350.064C277.111 349.04 275.695 348.528 273.887 348.528ZM288.579 363V345.48H299.187V348.36H291.915V352.656H298.755V355.536H291.915V360.12H299.379V363H288.579ZM305.276 363V345.36H311.78C313.876 345.36 315.548 345.832 316.796 346.776C318.044 347.72 318.668 349.152 318.668 351.072V351.48C318.668 352.792 318.364 353.872 317.756 354.72C317.164 355.568 316.34 356.192 315.284 356.592L319.964 363H315.98L311.852 357.144H311.78H308.684V363H305.276ZM312.14 348.264H308.684V354.384H312.14C313.068 354.384 313.812 354.104 314.372 353.544C314.932 352.984 315.212 352.248 315.212 351.336C315.212 350.424 314.932 349.688 314.372 349.128C313.812 348.552 313.068 348.264 312.14 348.264ZM330.784 363.456C329.232 363.456 327.92 363.208 326.848 362.712C325.776 362.216 324.96 361.536 324.4 360.672C323.856 359.808 323.584 358.816 323.584 357.696H326.92C326.92 358.176 327.048 358.632 327.304 359.064C327.56 359.496 327.968 359.848 328.528 360.12C329.104 360.392 329.856 360.528 330.784 360.528C332.032 360.528 332.968 360.272 333.592 359.76C334.216 359.248 334.528 358.624 334.528 357.888C334.528 357.28 334.264 356.784 333.736 356.4C333.208 356.016 332.392 355.776 331.288 355.68L329.752 355.56C328.072 355.416 326.728 354.896 325.72 354C324.728 353.088 324.232 351.888 324.232 350.4C324.232 349.296 324.488 348.336 325 347.52C325.528 346.704 326.272 346.08 327.232 345.648C328.192 345.2 329.312 344.976 330.592 344.976C331.904 344.976 333.04 345.208 334 345.672C334.976 346.136 335.728 346.792 336.256 347.64C336.784 348.472 337.048 349.456 337.048 350.592H333.712C333.712 349.888 333.448 349.264 332.92 348.72C332.408 348.176 331.632 347.904 330.592 347.904C329.568 347.904 328.808 348.152 328.312 348.648C327.816 349.144 327.568 349.728 327.568 350.4C327.568 350.944 327.76 351.424 328.144 351.84C328.544 352.24 329.184 352.472 330.064 352.536L331.6 352.68C332.848 352.792 333.936 353.064 334.864 353.496C335.808 353.912 336.544 354.488 337.072 355.224C337.6 355.96 337.864 356.848 337.864 357.888C337.864 358.992 337.568 359.968 336.976 360.816C336.4 361.648 335.584 362.296 334.528 362.76C333.472 363.224 332.224 363.456 330.784 363.456ZM351.612 363.456C350.028 363.456 348.652 363.176 347.484 362.616C346.316 362.056 345.348 361.328 344.58 360.432C343.828 359.52 343.268 358.544 342.9 357.504C342.532 356.448 342.348 355.432 342.348 354.456V353.928C342.348 352.856 342.54 351.792 342.924 350.736C343.308 349.68 343.884 348.72 344.652 347.856C345.436 346.976 346.404 346.28 347.556 345.768C348.708 345.24 350.06 344.976 351.612 344.976C353.132 344.976 354.468 345.24 355.62 345.768C356.788 346.28 357.756 346.976 358.524 347.856C359.292 348.72 359.868 349.68 360.252 350.736C360.652 351.792 360.852 352.856 360.852 353.928V354.456C360.852 355.432 360.66 356.448 360.276 357.504C359.908 358.544 359.34 359.52 358.572 360.432C357.82 361.328 356.86 362.056 355.692 362.616C354.54 363.176 353.18 363.456 351.612 363.456ZM351.612 360.288C352.796 360.288 353.82 360.016 354.684 359.472C355.548 358.912 356.212 358.168 356.676 357.24C357.156 356.312 357.396 355.304 357.396 354.216C357.396 353.064 357.156 352.032 356.676 351.12C356.212 350.192 355.548 349.464 354.684 348.936C353.82 348.408 352.796 348.144 351.612 348.144C350.412 348.144 349.38 348.408 348.516 348.936C347.652 349.464 346.98 350.192 346.5 351.12C346.036 352.032 345.804 353.064 345.804 354.216C345.804 355.304 346.036 356.312 346.5 357.24C346.964 358.168 347.628 358.912 348.492 359.472C349.372 360.016 350.412 360.288 351.612 360.288ZM366.546 363V345.48H372.138L379.506 360.168H379.818V345.48H383.034V363H377.418L370.05 348.312H369.714V363H366.546ZM397.338 363V345.36H403.842C405.938 345.36 407.61 345.832 408.858 346.776C410.106 347.72 410.73 349.152 410.73 351.072V351.48C410.73 352.792 410.426 353.872 409.818 354.72C409.226 355.568 408.402 356.192 407.346 356.592L412.026 363H408.042L403.914 357.144H403.842H400.746V363H397.338ZM404.202 348.264H400.746V354.384H404.202C405.13 354.384 405.874 354.104 406.434 353.544C406.994 352.984 407.274 352.248 407.274 351.336C407.274 350.424 406.994 349.688 406.434 349.128C405.874 348.552 405.13 348.264 404.202 348.264ZM415.284 363L421.26 345.48H426.828L432.972 363H429.468L427.86 358.344H420.228L418.692 363H415.284ZM421.188 355.464H426.876L424.452 348.336H423.564L421.188 355.464ZM437.974 363V345.48H442.63L447.022 355.944H447.454L451.822 345.48H456.55V363H453.166V349.128L448.87 359.424H445.39L441.094 349.2V363H437.974ZM461.545 363L467.521 345.48H473.089L479.233 363H475.729L474.121 358.344H466.489L464.953 363H461.545ZM467.449 355.464H473.137L470.713 348.336H469.825L467.449 355.464ZM484.235 363V345.48H487.643V360H494.723V363H484.235ZM499.901 363V345.48H503.309V352.728H511.397V345.48H514.805V363H511.397V355.728H503.309V363H499.901ZM529.751 363.456C528.167 363.456 526.791 363.176 525.623 362.616C524.455 362.056 523.487 361.328 522.719 360.432C521.967 359.52 521.407 358.544 521.039 357.504C520.671 356.448 520.487 355.432 520.487 354.456V353.928C520.487 352.856 520.679 351.792 521.063 350.736C521.447 349.68 522.023 348.72 522.791 347.856C523.575 346.976 524.543 346.28 525.695 345.768C526.847 345.24 528.199 344.976 529.751 344.976C531.271 344.976 532.607 345.24 533.759 345.768C534.927 346.28 535.895 346.976 536.663 347.856C537.431 348.72 538.007 349.68 538.391 350.736C538.791 351.792 538.991 352.856 538.991 353.928V354.456C538.991 355.432 538.799 356.448 538.415 357.504C538.047 358.544 537.479 359.52 536.711 360.432C535.959 361.328 534.999 362.056 533.831 362.616C532.679 363.176 531.319 363.456 529.751 363.456ZM529.751 360.288C530.935 360.288 531.959 360.016 532.823 359.472C533.687 358.912 534.351 358.168 534.815 357.24C535.295 356.312 535.535 355.304 535.535 354.216C535.535 353.064 535.295 352.032 534.815 351.12C534.351 350.192 533.687 349.464 532.823 348.936C531.959 348.408 530.935 348.144 529.751 348.144C528.551 348.144 527.519 348.408 526.655 348.936C525.791 349.464 525.119 350.192 524.639 351.12C524.175 352.032 523.943 353.064 523.943 354.216C523.943 355.304 524.175 356.312 524.639 357.24C525.103 358.168 525.767 358.912 526.631 359.472C527.511 360.016 528.551 360.288 529.751 360.288Z" fill="#FEFBFF"/>
<path fill-rule="evenodd" clip-rule="evenodd" d="M94.6653 319.851C94.6653 319.852 94.6657 319.826 94.6765 319.771C94.687 319.717 94.7053 319.646 94.7346 319.559C94.7934 319.385 94.89 319.165 95.0334 318.917C95.3199 318.421 95.7758 317.84 96.4341 317.301C97.733 316.235 99.8635 315.292 103.14 315.533C116.1 316.484 123.415 325.41 123.415 332.161V372.167C123.415 372.805 123.268 373.099 123.132 373.241C123.004 373.375 122.718 373.545 122.028 373.545H114.306C113.616 373.545 113.33 373.375 113.202 373.241C113.066 373.099 112.919 372.805 112.919 372.167V335.238C112.919 332.828 111.734 330.421 109.988 328.634C108.238 326.842 105.817 325.565 103.213 325.565H94.6653V319.851ZM103.213 327.565H94.6653V372.167C94.6653 373.162 94.4816 374.108 93.7928 374.763C93.1155 375.407 92.1812 375.545 91.2783 375.545H83.4153C82.6083 375.545 81.7232 375.389 81.0381 374.792C80.3256 374.171 80.0283 373.251 80.0283 372.167V334.819C80.0283 332.956 81.0921 330.668 82.6635 328.878C84.2481 327.074 86.5353 325.565 89.1713 325.565H92.6653V319.851C92.6653 319.284 92.917 318.582 93.3015 317.916C93.7055 317.217 94.3169 316.45 95.1658 315.754C96.8815 314.347 99.5249 313.262 103.286 313.538C117.005 314.545 125.415 324.098 125.415 332.161V372.167C125.415 373.069 125.211 373.963 124.575 374.626C123.931 375.297 123.024 375.545 122.028 375.545H114.306C113.31 375.545 112.403 375.297 111.759 374.626C111.123 373.963 110.919 373.069 110.919 372.167V335.238C110.919 333.463 110.026 331.534 108.558 330.031C107.093 328.532 105.161 327.565 103.213 327.565ZM89.1713 327.565H92.6653V372.167C92.6653 372.991 92.4979 373.234 92.4145 373.314C92.3195 373.404 92.0603 373.545 91.2783 373.545H83.4153C82.8182 373.545 82.5097 373.422 82.3524 373.285C82.2225 373.171 82.0283 372.902 82.0283 372.167V334.819C82.0283 333.604 82.7895 331.766 84.1663 330.198C85.5298 328.645 87.3141 327.565 89.1713 327.565ZM164.111 381.128C164.111 381.13 164.11 381.156 164.1 381.209C164.089 381.262 164.071 381.333 164.042 381.42C163.983 381.595 163.886 381.814 163.743 382.063C163.456 382.559 163.001 383.139 162.342 383.679C161.043 384.744 158.913 385.687 155.636 385.447C142.676 384.495 135.361 375.569 135.361 368.819V328.812C135.361 328.175 135.508 327.88 135.644 327.738C135.772 327.605 136.058 327.434 136.748 327.434H144.471C145.16 327.434 145.446 327.605 145.575 327.738C145.71 327.88 145.858 328.175 145.858 328.812V365.741C145.858 368.151 147.042 370.559 148.788 372.346C150.539 374.137 152.96 375.414 155.563 375.414H164.111V381.128V381.128ZM155.563 373.414H164.111V328.812C164.111 327.817 164.295 326.871 164.984 326.216C165.661 325.572 166.595 325.434 167.498 325.434H175.361C176.168 325.434 177.053 325.59 177.738 326.187C178.451 326.808 178.748 327.728 178.748 328.812V366.161C178.748 368.023 177.684 370.312 176.113 372.101C174.528 373.906 172.241 375.414 169.605 375.414H166.111V381.128C166.111 381.695 165.859 382.397 165.475 383.063C165.071 383.762 164.459 384.529 163.61 385.225C161.895 386.632 159.251 387.717 155.49 387.441C141.772 386.434 133.361 376.882 133.361 368.819V328.812C133.361 327.91 133.565 327.016 134.201 326.353C134.845 325.683 135.753 325.434 136.748 325.434H144.471C145.466 325.434 146.373 325.683 147.017 326.353C147.654 327.016 147.858 327.91 147.858 328.812V365.741C147.858 367.516 148.75 369.445 150.219 370.948C151.683 372.447 153.615 373.414 155.563 373.414ZM169.605 373.414H166.111V328.812C166.111 327.988 166.278 327.745 166.362 327.666C166.457 327.575 166.716 327.434 167.498 327.434H175.361C175.958 327.434 176.267 327.558 176.424 327.695C176.554 327.808 176.748 328.077 176.748 328.812V366.161C176.748 367.376 175.987 369.214 174.61 370.781C173.246 372.334 171.462 373.414 169.605 373.414Z" fill="#FEFBFF"/>
<circle cx="581.889" cy="86.4971" r="45.7505" fill="#E71924"/>
<circle cx="637.647" cy="86.4971" r="45.7505" fill="#F99F19"/>
<path fill-rule="evenodd" clip-rule="evenodd" d="M609.768 122.595C620.636 114.23 627.64 101.092 627.64 86.3172C627.64 71.5427 620.636 58.404 609.768 50.0396C598.9 58.404 591.897 71.5427 591.897 86.3172C591.897 101.092 598.9 114.23 609.768 122.595Z" fill="#F26520"/>
<rect x="80.4209" y="156.195" width="97.9347" height="69.3406" rx="6.07624" fill="url(#paint1_linear)" stroke="#211F21" stroke-width="2.14455"/>
<path d="M80.7783 178.713H110.087" stroke="#211F21" stroke-width="2" stroke-linecap="round"/>
<path d="M80.7783 200.873H109.445" stroke="#211F21" stroke-width="2" stroke-linecap="round"/>
<path d="M149.404 200.873H177.998" stroke="#211F21" stroke-width="2" stroke-linecap="round"/>
<path d="M148.975 179.428H177.998" stroke="#211F21" stroke-width="2" stroke-linecap="round"/>
<circle cx="129.388" cy="166.561" r="2.14455" fill="#211F21"/>
<path d="M231.053 205.824C236.325 192.59 236.926 185.119 231.053 171.645C230.43 170.215 231.053 169.024 231.768 168.786C232.483 168.547 233.589 168.786 234.27 170.215C241.188 184.73 240.767 192.87 234.627 207.387C233.912 208.817 232.575 208.998 231.768 208.46C230.824 207.831 230.608 206.941 231.053 205.824Z" fill="#FEFBFF"/>
<path d="M223.547 172.717C222.832 173.075 222.375 174.43 223.19 175.934C227.999 185.94 227.801 191.662 223.19 202.026C222.686 203.071 222.998 204.226 223.905 204.528C224.977 204.886 225.913 204.125 226.406 203.098C231.701 192.084 231.84 185.756 226.406 174.147C225.905 173.075 224.619 172.181 223.547 172.717Z" fill="#FEFBFF"/>
<path d="M216.399 177.364C215.326 177.721 215.136 178.908 215.684 180.223C218.53 187.063 218.979 190.898 215.684 197.737C215.041 198.929 214.83 200.193 216.041 200.596C217.252 201 218.126 200.363 218.543 199.524C222.766 191.149 221.82 186.454 218.543 178.079C218.263 177.364 217.471 177.006 216.399 177.364Z" fill="#FEFBFF"/>
<path d="M208.893 180.223C207.82 180.938 207.668 182.022 208.535 183.797C210.344 187.564 210.303 189.68 208.535 193.448C207.713 195.11 207.463 197.022 208.893 197.38C210.322 197.737 210.957 197.229 211.752 195.235C213.578 189.987 213.756 187.02 211.752 181.653C211.291 180.261 210.322 179.508 208.893 180.223Z" fill="#FEFBFF"/>
<path d="M145.115 170.849C142.372 161.508 137.251 156.91 129.03 156.91C119.023 156.91 116.194 164.53 110.087 178.355C113.998 187.507 114.039 192.437 110.087 200.873C116.494 219.254 121.24 224.915 129.388 224.821C140.111 224.821 143.163 215.733 149.046 200.873C145.952 192.497 145.622 187.875 148.5 179.5" stroke="#211F21" stroke-width="2" stroke-linecap="round"/>
<defs>
<filter id="filter0_i" x="0" y="0" width="725" height="461" filterUnits="userSpaceOnUse" color-interpolation-filters="sRGB">
<feFlood flood-opacity="0" result="BackgroundImageFix"/>
<feBlend mode="normal" in="SourceGraphic" in2="BackgroundImageFix" result="shape"/>
<feColorMatrix in="SourceAlpha" type="matrix" values="0 0 0 0 0 0 0 0 0 0 0 0 0 0 0 0 0 0 127 0" result="hardAlpha"/>
<feOffset dx="3" dy="3"/>
<feGaussianBlur stdDeviation="3"/>
<feComposite in2="hardAlpha" operator="arithmetic" k2="-1" k3="1"/>
<feColorMatrix type="matrix" values="0 0 0 0 1 0 0 0 0 1 0 0 0 0 1 0 0 0 0.25 0"/>
<feBlend mode="normal" in2="shape" result="effect1_innerShadow"/>
</filter>
<linearGradient id="paint0_linear" x1="610.09" y1="61.83" x2="354.096" y2="526.995" gradientUnits="userSpaceOnUse">
<stop stop-color="#A950C4"/>
<stop offset="1" stop-color="#82269E"/>
</linearGradient>
<linearGradient id="paint1_linear" x1="171" y1="165" x2="87" y2="221" gradientUnits="userSpaceOnUse">
<stop stop-color="#F4F4F4"/>
<stop offset="1" stop-color="#D6D6D6"/>
</linearGradient>
</defs>
</svg>
